<!DOCTYPE svg PUBLIC "-//W3C//DTD SVG 1.1//EN" "http://www.w3.org/Graphics/SVG/1.1/DTD/svg11.dtd">
<!-- Uploaded to: SVG Repo, www.svgrepo.com, Transformed by: SVG Repo Mixer Tools -->
<svg fill="#1e254a" version="1.1" id="Layer_1" xmlns="http://www.w3.org/2000/svg" xmlns:xlink="http://www.w3.org/1999/xlink" viewBox="0 0 24 24" xml:space="preserve" width="800px" height="800px">
<g id="SVGRepo_bgCarrier" stroke-width="0"/>
<g id="SVGRepo_tracerCarrier" stroke-linecap="round" stroke-linejoin="round"/>
<g id="SVGRepo_iconCarrier"> <style type="text/css"> .st0{fill:none;} </style> <g> <path d="M20,2H4C2.9,2,2,2.9,2,4v16c0,1.1,0.9,2,2,2h16c1.1,0,2-0.9,2-2V4C22,2.9,21.1,2,20,2z M20,20H4V4h16V20z"/> </g> <rect x="11" y="15" width="2" height="2"/> <path d="M13,14h-2c0-2.6,2-2.1,2-4.2c0-0.4-0.2-1.3-1.1-1.3c-0.3,0-1,0.5-1,1.5H9c0,0-0.4-3,2.9-3C14.5,7,15,8.9,15,9.8 C15,12.1,13,12.3,13,14z"/> <rect class="st0" width="24" height="24"/> </g>
</svg>